<?xml version="1.0" standalone="no"?><!-- Generator: Gravit.io --><svg xmlns="http://www.w3.org/2000/svg" xmlns:xlink="http://www.w3.org/1999/xlink" style="isolation:isolate" viewBox="0 0 192 192" width="192" height="192"><defs><clipPath id="_clipPath_suFQzWxnWIRY84NtYr7tGlQ4Bln75r6E"><rect width="192" height="192"/></clipPath></defs><g clip-path="url(#_clipPath_suFQzWxnWIRY84NtYr7tGlQ4Bln75r6E)"><g id="bg"><defs><filter id="GqIEOccAsKrTkXHOwaXkUEJRjT0iPuLO" x="-200%" y="-200%" width="400%" height="400%"><feOffset xmlns="http://www.w3.org/2000/svg" in="SourceAlpha" result="offOut" dx="0" dy="4"/><feGaussianBlur xmlns="http://www.w3.org/2000/svg" in="offOut" result="blurOut" stdDeviation="2"/><feComponentTransfer xmlns="http://www.w3.org/2000/svg" in="blurOut" result="opacOut"><feFuncA xmlns="http://www.w3.org/2000/svg" type="table" tableValues="0 0.5"/></feComponentTransfer><feBlend xmlns="http://www.w3.org/2000/svg" in="SourceGraphic" in2="opacOut" mode="normal"/></filter></defs><g filter="url(#GqIEOccAsKrTkXHOwaXkUEJRjT0iPuLO)"><path d="M 96 8 L 96 8 C 144.569 8 184 47.431 184 96 L 184 96 C 184 144.569 144.569 184 96 184 L 96 184 C 47.431 184 8 144.569 8 96 L 8 96 C 8 47.431 47.431 8 96 8 Z" style="stroke:none;fill:#009688;stroke-miterlimit:10;"/></g><line x1="58.79" y1="64.092" x2="58.79" y2="127.908" vector-effect="non-scaling-stroke" stroke-width="8.755" stroke="rgb(0,0,0)" stroke-opacity="0.34" stroke-linejoin="miter" stroke-linecap="round" stroke-miterlimit="3"/><line x1="96.574" y1="64.092" x2="96.574" y2="127.908" vector-effect="non-scaling-stroke" stroke-width="8.755" stroke="rgb(0,0,0)" stroke-opacity="0.34" stroke-linejoin="miter" stroke-linecap="round" stroke-miterlimit="3"/><line x1="133.21" y1="64.092" x2="133.21" y2="127.908" vector-effect="non-scaling-stroke" stroke-width="8.755" stroke="rgb(0,0,0)" stroke-opacity="0.34" stroke-linejoin="miter" stroke-linecap="round" stroke-miterlimit="3"/><defs><filter id="4wSCfhrkOtZllI27IbI2bhL0oKC5sFfx" x="-200%" y="-200%" width="400%" height="400%"><feOffset xmlns="http://www.w3.org/2000/svg" in="SourceAlpha" result="offOut" dx="0" dy="2"/><feGaussianBlur xmlns="http://www.w3.org/2000/svg" in="offOut" result="blurOut" stdDeviation="1"/><feComponentTransfer xmlns="http://www.w3.org/2000/svg" in="blurOut" result="opacOut"><feFuncA xmlns="http://www.w3.org/2000/svg" type="table" tableValues="0 0.5"/></feComponentTransfer><feBlend xmlns="http://www.w3.org/2000/svg" in="SourceGraphic" in2="opacOut" mode="normal"/></filter></defs><g filter="url(#4wSCfhrkOtZllI27IbI2bhL0oKC5sFfx)"><path d=" M 46.855 78.707 C 46.855 72.12 52.203 66.772 58.79 66.772 C 65.377 66.772 70.725 72.12 70.725 78.707 C 70.725 85.295 65.377 90.643 58.79 90.643 C 52.203 90.643 46.855 85.295 46.855 78.707 Z " fill="rgb(0,229,255)"/></g><defs><filter id="cJ0yHTB78kTDctvWmzZFLWic6NSS667e" x="-200%" y="-200%" width="400%" height="400%"><feOffset xmlns="http://www.w3.org/2000/svg" in="SourceAlpha" result="offOut" dx="0" dy="2"/><feGaussianBlur xmlns="http://www.w3.org/2000/svg" in="offOut" result="blurOut" stdDeviation="1"/><feComponentTransfer xmlns="http://www.w3.org/2000/svg" in="blurOut" result="opacOut"><feFuncA xmlns="http://www.w3.org/2000/svg" type="table" tableValues="0 0.5"/></feComponentTransfer><feBlend xmlns="http://www.w3.org/2000/svg" in="SourceGraphic" in2="opacOut" mode="normal"/></filter></defs><g filter="url(#cJ0yHTB78kTDctvWmzZFLWic6NSS667e)"><path d=" M 84.639 112.126 C 84.639 105.539 89.987 100.191 96.574 100.191 C 103.161 100.191 108.509 105.539 108.509 112.126 C 108.509 118.713 103.161 124.061 96.574 124.061 C 89.987 124.061 84.639 118.713 84.639 112.126 Z " fill="rgb(0,229,255)"/></g><defs><filter id="0MspqcKxFJcCsZEjzNjw5s7dMAX1V1ZO" x="-200%" y="-200%" width="400%" height="400%"><feOffset xmlns="http://www.w3.org/2000/svg" in="SourceAlpha" result="offOut" dx="0" dy="2"/><feGaussianBlur xmlns="http://www.w3.org/2000/svg" in="offOut" result="blurOut" stdDeviation="1"/><feComponentTransfer xmlns="http://www.w3.org/2000/svg" in="blurOut" result="opacOut"><feFuncA xmlns="http://www.w3.org/2000/svg" type="table" tableValues="0 0.5"/></feComponentTransfer><feBlend xmlns="http://www.w3.org/2000/svg" in="SourceGraphic" in2="opacOut" mode="normal"/></filter></defs><g filter="url(#0MspqcKxFJcCsZEjzNjw5s7dMAX1V1ZO)"><path d=" M 121.275 96 C 121.275 89.413 126.623 84.065 133.21 84.065 C 139.797 84.065 145.145 89.413 145.145 96 C 145.145 102.587 139.797 107.935 133.21 107.935 C 126.623 107.935 121.275 102.587 121.275 96 Z " fill="rgb(0,229,255)"/></g></g><g id="fg" filter="url(#2JPhbm3ZGRgKuvBlLUeQQLEgGWioeh0g)"><path d=" M 96 143.246 C 96 127.928 108.436 115.492 123.754 115.492 C 139.072 115.492 151.508 127.928 151.508 143.246 C 151.508 158.564 139.072 171 123.754 171 C 108.436 171 96 158.564 96 143.246 Z " fill="rgb(24,255,255)"/><path d=" M 147.068 143.246 L 147.068 40 L 164.62 40 C 166.208 46.216 169.936 49.944 175.722 51.102 L 187.823 51.102 L 187.823 67.754 L 175.722 67.754 C 169.426 66.289 165.731 62.779 164.62 57.208 L 147.068 57.208 L 147.068 143.246 Z " fill="rgb(24,255,255)" vector-effect="non-scaling-stroke" stroke-width="8.326" stroke="rgb(24,255,255)" stroke-linejoin="round" stroke-linecap="square" stroke-miterlimit="3"/></g><defs><filter id="2JPhbm3ZGRgKuvBlLUeQQLEgGWioeh0g" x="-200%" y="-200%" width="400%" height="400%"><feOffset xmlns="http://www.w3.org/2000/svg" in="SourceAlpha" result="offOut" dx="0" dy="4"/><feGaussianBlur xmlns="http://www.w3.org/2000/svg" in="offOut" result="blurOut" stdDeviation="2"/><feComponentTransfer xmlns="http://www.w3.org/2000/svg" in="blurOut" result="opacOut"><feFuncA xmlns="http://www.w3.org/2000/svg" type="table" tableValues="0 0.5"/></feComponentTransfer><feBlend xmlns="http://www.w3.org/2000/svg" in="SourceGraphic" in2="opacOut" mode="normal"/></filter></defs></g></svg>