<svg xmlns="http://www.w3.org/2000/svg" style="isolation:isolate" width="192" height="192"><defs><clipPath id="a"><path d="M0 0h192v192H0z"/></clipPath></defs><g clip-path="url(#a)"><defs><filter id="b" x="-200%" y="-200%" width="400%" height="400%"><feOffset xmlns="http://www.w3.org/2000/svg" in="SourceAlpha" result="offOut" dy="4"/><feGaussianBlur xmlns="http://www.w3.org/2000/svg" in="offOut" result="blurOut" stdDeviation="2"/><feComponentTransfer xmlns="http://www.w3.org/2000/svg" in="blurOut" result="opacOut"><feFuncA xmlns="http://www.w3.org/2000/svg" type="table" tableValues="0 0.5"/></feComponentTransfer><feBlend xmlns="http://www.w3.org/2000/svg" in="SourceGraphic" in2="opacOut"/></filter></defs><g filter="url(#b)"><path d="M96 8c48.569 0 88 39.431 88 88s-39.431 88-88 88S8 144.569 8 96 47.431 8 96 8z" fill="#009688"/></g><path vector-effect="non-scaling-stroke" stroke-width="8.755" stroke="#000" stroke-opacity=".34" stroke-linecap="round" stroke-miterlimit="3" d="M58.79 64.092v63.816m37.784-63.816v63.816m36.636-63.816v63.816"/><defs><filter id="c" x="-200%" y="-200%" width="400%" height="400%"><feOffset xmlns="http://www.w3.org/2000/svg" in="SourceAlpha" result="offOut" dy="2"/><feGaussianBlur xmlns="http://www.w3.org/2000/svg" in="offOut" result="blurOut" stdDeviation="1"/><feComponentTransfer xmlns="http://www.w3.org/2000/svg" in="blurOut" result="opacOut"><feFuncA xmlns="http://www.w3.org/2000/svg" type="table" tableValues="0 0.5"/></feComponentTransfer><feBlend xmlns="http://www.w3.org/2000/svg" in="SourceGraphic" in2="opacOut"/></filter></defs><g filter="url(#c)"><path d="M46.855 78.707c0-6.587 5.348-11.935 11.935-11.935 6.587 0 11.935 5.348 11.935 11.935 0 6.588-5.348 11.936-11.935 11.936-6.587 0-11.935-5.348-11.935-11.936z" fill="#00E5FF"/></g><defs><filter id="d" x="-200%" y="-200%" width="400%" height="400%"><feOffset xmlns="http://www.w3.org/2000/svg" in="SourceAlpha" result="offOut" dy="2"/><feGaussianBlur xmlns="http://www.w3.org/2000/svg" in="offOut" result="blurOut" stdDeviation="1"/><feComponentTransfer xmlns="http://www.w3.org/2000/svg" in="blurOut" result="opacOut"><feFuncA xmlns="http://www.w3.org/2000/svg" type="table" tableValues="0 0.5"/></feComponentTransfer><feBlend xmlns="http://www.w3.org/2000/svg" in="SourceGraphic" in2="opacOut"/></filter></defs><g filter="url(#d)"><path d="M84.639 112.126c0-6.587 5.348-11.935 11.935-11.935 6.587 0 11.935 5.348 11.935 11.935 0 6.587-5.348 11.935-11.935 11.935-6.587 0-11.935-5.348-11.935-11.935z" fill="#00E5FF"/></g><defs><filter id="e" x="-200%" y="-200%" width="400%" height="400%"><feOffset xmlns="http://www.w3.org/2000/svg" in="SourceAlpha" result="offOut" dy="2"/><feGaussianBlur xmlns="http://www.w3.org/2000/svg" in="offOut" result="blurOut" stdDeviation="1"/><feComponentTransfer xmlns="http://www.w3.org/2000/svg" in="blurOut" result="opacOut"><feFuncA xmlns="http://www.w3.org/2000/svg" type="table" tableValues="0 0.5"/></feComponentTransfer><feBlend xmlns="http://www.w3.org/2000/svg" in="SourceGraphic" in2="opacOut"/></filter></defs><g filter="url(#e)"><path d="M121.275 96c0-6.587 5.348-11.935 11.935-11.935 6.587 0 11.935 5.348 11.935 11.935 0 6.587-5.348 11.935-11.935 11.935-6.587 0-11.935-5.348-11.935-11.935z" fill="#00E5FF"/></g><g filter="url(#f)" fill="#18FFFF"><path d="M96 143.246c0-15.318 12.436-27.754 27.754-27.754 15.318 0 27.754 12.436 27.754 27.754 0 15.318-12.436 27.754-27.754 27.754C108.436 171 96 158.564 96 143.246z"/><path d="M147.068 143.246V40h17.552c1.588 6.216 5.316 9.944 11.102 11.102h12.101v16.652h-12.101c-6.296-1.465-9.991-4.975-11.102-10.546h-17.552v86.038z" vector-effect="non-scaling-stroke" stroke-width="8.326" stroke="#18FFFF" stroke-linejoin="round" stroke-linecap="square" stroke-miterlimit="3"/></g><defs><filter id="f" x="-200%" y="-200%" width="400%" height="400%"><feOffset xmlns="http://www.w3.org/2000/svg" in="SourceAlpha" result="offOut" dy="4"/><feGaussianBlur xmlns="http://www.w3.org/2000/svg" in="offOut" result="blurOut" stdDeviation="2"/><feComponentTransfer xmlns="http://www.w3.org/2000/svg" in="blurOut" result="opacOut"><feFuncA xmlns="http://www.w3.org/2000/svg" type="table" tableValues="0 0.5"/></feComponentTransfer><feBlend xmlns="http://www.w3.org/2000/svg" in="SourceGraphic" in2="opacOut"/></filter></defs></g></svg>